<svg width="24" height="24" viewBox="0 0 24 24" fill="none" xmlns="http://www.w3.org/2000/svg">
<path d="M12.782 5.51075C12.6541 5.54002 12.539 5.5573 12.4397 5.56703C12.4459 5.39654 12.464 5.18581 12.5061 4.9509C12.6182 4.3263 12.896 3.55087 13.5535 2.8933C14.2391 2.20774 14.9515 1.85951 15.4875 1.68211C15.6199 1.63831 15.7414 1.60497 15.8489 1.5796C15.841 1.75384 15.8217 1.96257 15.7811 2.19264C15.6628 2.86396 15.368 3.69485 14.6691 4.39373C13.9461 5.1167 13.2638 5.40057 12.782 5.51075Z" fill="white" stroke="white"/>
<path d="M12.1245 7.3396C11.0188 7.33204 10.3396 6.37734 8.4566 6.37734C6.76225 6.37734 5.06373 7.47051 4.34151 8.52828C3.62264 9.58111 3 10.7358 3 13.0792C3 15.4226 4.12832 19.4528 6.90285 22.1811C7.378 22.6483 8.00698 22.9995 8.72454 23.0213C10.0151 23.0604 10.8076 22.0943 12.4377 22.0943C14.0679 22.0943 14.5585 23.0213 16.0302 23.0213C16.6994 23.0213 17.4626 22.7165 18.2038 21.9283C19.1547 20.917 20.3347 18.9909 20.9358 17.1434C20.9358 17.1434 17.9258 15.9809 17.9622 12.6301C17.9924 9.8528 20.3509 8.48675 20.3509 8.48675C20.3509 8.48675 18.9735 6.29053 16.0453 6.29053C14.0226 6.30565 13.1169 7.34639 12.1245 7.3396Z" fill="white"/>
</svg>
