<svg width="24" height="24" viewBox="0 0 24 24" fill="none" xmlns="http://www.w3.org/2000/svg">
<g clip-path="url(#clip0_21_441)">
<path d="M23.7135 12.2762C23.7135 11.4605 23.6474 10.6403 23.5063 9.83783H12.1875V14.4588H18.6692C18.4003 15.9492 17.536 17.2676 16.2705 18.1053V21.1037H20.1375C22.4083 19.0137 23.7135 15.9271 23.7135 12.2762Z" fill="#4285F4"/>
<path d="M12.1876 24.0008C15.4241 24.0008 18.1534 22.9382 20.142 21.1039L16.2751 18.1055C15.1992 18.8375 13.8102 19.252 12.192 19.252C9.06139 19.252 6.40697 17.1399 5.45456 14.3003H1.46411V17.3912C3.50122 21.4434 7.65041 24.0008 12.1876 24.0008Z" fill="#34A853"/>
<path d="M5.45004 14.3004C4.94737 12.81 4.94737 11.1962 5.45004 9.70587V6.61493H1.464C-0.238001 10.0057 -0.238001 14.0006 1.464 17.3913L5.45004 14.3004Z" fill="#FBBC04"/>
<path d="M12.1876 4.74966C13.8984 4.7232 15.5519 5.36697 16.7909 6.54867L20.217 3.12262C18.0476 1.0855 15.1683 -0.034466 12.1876 0.000808666C7.6504 0.000808666 3.50122 2.55822 1.46411 6.61481L5.45015 9.70575C6.39815 6.86173 9.05698 4.74966 12.1876 4.74966Z" fill="#EA4335"/>
</g>
<defs>
<clipPath id="clip0_21_441">
<rect width="24" height="24" fill="white"/>
</clipPath>
</defs>
</svg>
