<svg width="22" height="22" viewBox="0 0 22 22" fill="none" xmlns="http://www.w3.org/2000/svg">
<path d="M5.88504 16.2524C3.84087 14.914 2.52087 12.8974 2.52087 11.1282C2.52087 8.12152 6.31587 4.43652 11 4.43652C12.9159 4.43652 14.6942 5.05069 16.1242 6.00402" stroke="#8A7F85" stroke-opacity="0.3" stroke-width="1.5" stroke-linecap="round" stroke-linejoin="round"/>
<path d="M18.1957 7.8927C19.0124 8.92853 19.4882 10.0744 19.4882 11.1285C19.4882 14.1352 15.684 17.8202 10.9998 17.8202C10.1657 17.8202 9.35074 17.701 8.58899 17.4902" stroke="#8A7F85" stroke-opacity="0.3" stroke-width="1.5" stroke-linecap="round" stroke-linejoin="round"/>
<path d="M8.95194 13.1698C8.40652 12.6299 8.10127 11.8938 8.10402 11.1265C8.10036 9.52696 9.39469 8.22712 10.9952 8.22437C11.7652 8.22254 12.504 8.52779 13.0485 9.07229" stroke="#8A7F85" stroke-opacity="0.3" stroke-width="1.5" stroke-linecap="round" stroke-linejoin="round"/>
<path d="M13.8504 11.6409C13.6359 12.8252 12.7091 13.7538 11.5248 13.971" stroke="#8A7F85" stroke-opacity="0.3" stroke-width="1.5" stroke-linecap="round" stroke-linejoin="round"/>
<path d="M18.2342 3.89575L3.77466 18.3553" stroke="#8A7F85" stroke-opacity="0.3" stroke-width="1.5" stroke-linecap="round" stroke-linejoin="round"/>
</svg>
