<svg width="22" height="22" viewBox="0 0 22 22" fill="none" xmlns="http://www.w3.org/2000/svg">
<path d="M18.1408 3.86834C15.4275 1.16417 11.0275 1.16417 8.33247 3.86834C6.43497 5.7475 5.86664 8.45167 6.59997 10.835L2.29164 15.1433C1.98914 15.455 1.7783 16.0692 1.84247 16.5092L2.11747 18.5075C2.2183 19.1675 2.83247 19.7908 3.49247 19.8825L5.4908 20.1575C5.9308 20.2217 6.54497 20.02 6.85664 19.6992L7.6083 18.9475C7.79164 18.7733 7.79164 18.48 7.6083 18.2967L5.82997 16.5183C5.56414 16.2525 5.56414 15.8125 5.82997 15.5467C6.0958 15.2808 6.5358 15.2808 6.80164 15.5467L8.58914 17.3342C8.7633 17.5083 9.05664 17.5083 9.2308 17.3342L11.1741 15.4C13.5483 16.1425 16.2525 15.565 18.1408 13.6858C20.845 10.9817 20.845 6.5725 18.1408 3.86834ZM13.2916 11C12.0266 11 11 9.97334 11 8.70834C11 7.44334 12.0266 6.41667 13.2916 6.41667C14.5566 6.41667 15.5833 7.44334 15.5833 8.70834C15.5833 9.97334 14.5566 11 13.2916 11Z" fill="#8A7F85"/>
</svg>
