<svg width="112" height="104" viewBox="0 0 112 104" fill="none" xmlns="http://www.w3.org/2000/svg">
<path d="M93.0393 48.9357C93.0393 69.3347 76.465 85.8714 56.0196 85.8714C35.5743 85.8714 19 69.3347 19 48.9357C19 28.5367 35.5743 12 56.0196 12C76.465 12 93.0393 28.5367 93.0393 48.9357Z" fill="url(#paint0_linear_5004_1984)"/>
<path d="M57.2252 48.8713C62.9782 48.8713 67.6419 44.2076 67.6419 38.4547C67.6419 32.7017 62.9782 28.038 57.2252 28.038C51.4722 28.038 46.8085 32.7017 46.8085 38.4547C46.8085 44.2076 51.4722 48.8713 57.2252 48.8713Z" fill="#F2F8FD"/>
<path d="M57.2252 54.0797C46.7877 54.0797 38.2877 61.0797 38.2877 69.7047C38.2877 70.288 38.746 70.7463 39.3294 70.7463H75.121C75.7043 70.7463 76.1627 70.288 76.1627 69.7047C76.1627 61.0797 67.6627 54.0797 57.2252 54.0797Z" fill="white"/>
<path d="M105 6C105 9.31371 102.314 12 99 12C95.6863 12 93 9.31371 93 6C93 2.68629 95.6863 0 99 0C102.314 0 105 2.68629 105 6Z" fill="#3FB644"/>
<path d="M8 50C8 52.2091 6.20914 54 4 54C1.79086 54 0 52.2091 0 50C0 47.7909 1.79086 46 4 46C6.20914 46 8 47.7909 8 50Z" fill="#3FB644"/>
<path d="M112 92C112 98.6274 106.627 104 100 104C93.3726 104 88 98.6274 88 92C88 85.3726 93.3726 80 100 80C106.627 80 112 85.3726 112 92Z" fill="#3FB644"/>
<path d="M11 3C11 4.65685 9.65685 6 8 6C6.34315 6 5 4.65685 5 3C5 1.34315 6.34315 0 8 0C9.65685 0 11 1.34315 11 3Z" fill="#3FB644"/>
<defs>
<linearGradient id="paint0_linear_5004_1984" x1="56" y1="0" x2="56" y2="104" gradientUnits="userSpaceOnUse">
<stop stop-color="#008A04"/>
<stop offset="1" stop-color="#1EA922"/>
</linearGradient>
</defs>
</svg>
