<svg width="43" height="36" viewBox="0 0 43 36" fill="none" xmlns="http://www.w3.org/2000/svg">
<path fill-rule="evenodd" clip-rule="evenodd" d="M23.5806 3.05991V0C24.2006 0.659982 24.2405 2.19994 23.5806 3.05991ZM27.5824 2.12661L27.5822 2.12696C27.2185 2.70384 26.8892 3.22631 26.5598 3.7401C26.2398 2.58014 27.1198 1.24017 28.1798 1.18018C27.9694 1.51264 27.7729 1.82439 27.5855 2.12167L27.5846 2.12312L27.5828 2.12593L27.5824 2.12661ZM23.8004 9.29988C22.9204 9.33987 21.9404 9.25988 21.8204 8.69989C21.6604 7.81992 21.8204 6.95994 22.6604 6.45995C23.4404 5.97997 24.2204 6.03997 24.9604 6.55995C25.7603 7.11994 25.7203 7.95991 25.6003 8.77989C25.5803 8.93989 25.2603 9.13988 25.0404 9.15988C24.8404 9.19988 24.3404 9.27988 23.8004 9.29988ZM16.6206 4.04004C17.0858 4.7814 17.7411 5.08956 18.4715 5.43299L18.4715 5.43301L18.4715 5.43303C18.746 5.56208 19.031 5.69611 19.3205 5.85999C19.0405 4.84002 17.7806 4.06004 16.6206 4.04004ZM28.0801 5.23972C28.3936 5.05619 28.7042 4.87266 29.0186 4.68689L29.0188 4.68681L29.0189 4.68673L29.0189 4.68672C29.5266 4.38671 30.0443 4.08086 30.6 3.75977C30.68 4.63974 29.36 5.53972 28.2801 5.53972C28.2001 5.43972 28.1401 5.33972 28.0801 5.23972ZM21.0994 3.75984C21.2594 2.67987 20.2394 1.13991 19.4395 1.27991C19.5887 1.52674 19.7165 1.78181 19.8437 2.03565C20.1598 2.66623 20.472 3.28929 21.0994 3.75984ZM14.5003 32.4593C14.2603 30.7993 13.6403 29.4393 12.3003 28.5394C9.38041 26.5394 5.50052 28.0994 4.78054 31.5993C4.62054 32.3392 4.36055 32.5392 3.70057 32.4593C3.47214 32.4364 3.25023 32.4397 3.02739 32.4429H3.02734H3.02726C2.85994 32.4454 2.69211 32.4478 2.5206 32.4392C1.18064 32.3792 0.300661 31.5393 0.300661 30.2193C0.240662 24.4395 0.200664 18.6596 0.180664 12.8998C0.180664 10.9798 1.06064 10.1399 2.94059 10.1399C5.19487 10.1399 7.45041 10.1411 9.70657 10.1424C16.4777 10.1461 23.2544 10.1499 30.0198 10.1199C31.3598 10.1199 32.4398 10.5799 33.3597 11.4998C34.063 12.2031 34.7631 12.9097 35.4626 13.6158L35.4629 13.616C37.2101 15.3796 38.9544 17.1402 40.7395 18.8396C42.0395 20.0796 42.6795 21.4596 42.5995 23.2795C42.5855 23.5832 42.5809 23.8435 42.577 24.0664C42.5664 24.6625 42.5606 24.9913 42.3938 25.1697C42.1888 25.389 41.7405 25.381 40.741 25.363L40.5395 25.3594C39.6796 25.3394 39.1396 25.6794 39.0396 26.5594C38.9596 27.3194 39.5996 27.8594 40.5195 27.8994C42.5795 27.9594 42.5795 27.9594 42.5795 30.0393C42.5795 30.1451 42.5817 30.253 42.5839 30.3617L42.5839 30.3622C42.5883 30.5822 42.5929 30.8052 42.5795 31.0193C42.5195 31.9193 41.9995 32.3792 41.1395 32.4792C40.938 32.5061 40.7365 32.4969 40.541 32.4879L40.5406 32.4879C40.4453 32.4836 40.3513 32.4792 40.2595 32.4792C39.3481 32.4792 38.8931 32.4792 38.5806 32.2682C38.2691 32.0579 38.0991 31.6379 37.7596 30.7993C36.8596 28.5994 35.1197 27.5794 32.4998 27.7394C30.7198 27.8594 28.9799 29.3793 28.5399 31.4393C28.3599 32.2993 27.9799 32.4992 27.1799 32.4792C24.05 32.4493 20.909 32.453 17.7231 32.4567H17.7227L17.7184 32.4567C16.6512 32.458 15.5789 32.4593 14.5003 32.4593ZM33.0997 22.7395H36.8396C37.3759 22.7395 37.944 22.6117 38.0587 22.0992C38.0728 22.0382 38.0802 21.9717 38.0802 21.8994L38.0813 21.8358V21.8357V21.8357V21.8356C38.0878 21.4624 38.0943 21.0857 38.0668 20.715C38.0218 20.0976 37.8833 19.5022 37.494 18.9637C37.3888 18.8176 37.2652 18.6759 37.1203 18.5395L37.0732 18.4963L36.9324 18.3648C35.9338 17.4324 34.9292 16.4946 34.0391 15.4638C33.8964 15.298 33.7567 15.13 33.6204 14.9596C33.6047 14.94 33.5891 14.9206 33.5734 14.9015C33.2059 14.447 32.8069 14.1216 32.3808 13.8925C31.468 13.3942 30.4397 13.3387 29.3205 13.4196C29.2025 13.4277 29.0932 13.4426 28.9923 13.4644C28.9754 13.4681 28.9587 13.4719 28.9422 13.476C28.3246 13.628 28.0399 14.0573 28.0399 14.7997C28.0499 15.8797 28.0499 16.9597 28.0499 18.0422V18.0428C28.0499 19.125 28.0499 20.2098 28.0599 21.2996L28.0606 21.3361C28.0642 21.8596 28.1457 22.1993 28.3566 22.4133C28.5815 22.6532 28.9574 22.7395 29.5598 22.7395H29.5696C30.3532 22.7527 31.1367 22.7482 31.9203 22.7438H31.9204H31.9204L31.9218 22.7438C32.2534 22.7419 32.5849 22.7401 32.9165 22.7395H33.0997ZM12.6203 21.6649V22.7595C12.6203 24.3395 12.6203 24.3395 14.2603 24.3395C15.1204 24.3395 15.5454 24.3395 15.7553 24.127C15.7595 24.1227 15.7637 24.1183 15.7678 24.1138L15.7751 24.1066C15.98 23.8992 15.98 23.4893 15.98 22.6791C15.98 21.9457 15.98 21.5709 16.153 21.3794C16.3405 21.1996 16.7105 21.1996 17.4402 21.1996C18.2368 21.1996 18.6777 21.182 18.9213 20.9925C19.2219 20.7853 19.2399 20.3502 19.2399 19.4392C19.2199 17.8593 19.0799 17.7193 17.48 17.7193C17.4184 17.7193 17.3592 17.7169 17.3015 17.7146H17.3015C17.1905 17.7103 17.0853 17.7061 16.98 17.7193C16.5291 17.7655 16.2252 17.6781 16.0684 17.4493C15.9833 17.3213 15.9414 17.1507 15.9432 16.9349C15.9444 16.8675 15.95 16.7956 15.96 16.7193C15.9659 16.6547 15.9683 16.5885 15.9688 16.5215C15.97 16.4292 15.9673 16.3354 15.9646 16.2426C15.9624 16.1671 15.9602 16.0923 15.9602 16.0197C15.9602 14.7197 15.9602 14.6997 14.6403 14.7197C14.3812 14.722 14.1548 14.7204 13.9572 14.7191H13.957H13.9569H13.9569C13.2688 14.7144 12.9283 14.712 12.7641 14.881C12.654 14.9942 12.6231 15.1844 12.6199 15.5024C12.6178 15.6537 12.6224 15.8341 12.6278 16.0491L12.6278 16.0492C12.6325 16.2379 12.6379 16.4534 12.6401 16.6993L12.64 16.739C12.6312 17.4378 12.4581 17.7586 11.6603 17.7197C10.2659 17.6764 9.742 17.715 9.5518 18.0974C9.4283 18.324 9.43277 18.6775 9.4396 19.2178C9.44246 19.444 9.44574 19.703 9.4402 19.9992V20.1992C9.3602 20.9592 9.74019 21.2792 10.4602 21.2992H12.0053C12.2042 21.2996 12.4085 21.2996 12.6201 21.2996H12.6201C12.6201 21.4291 12.6201 21.5503 12.6203 21.6649ZM33.2 29.059C31.38 29.079 29.9001 30.599 29.9001 32.4789C29.7401 34.6389 31.64 35.9188 33.24 35.9988C35.0199 36.0588 36.6999 34.2989 36.6799 32.4989C36.6599 30.639 35.0399 29.039 33.2 29.059ZM9.56012 29.0595C7.66017 29.0795 6.22021 30.5995 6.22021 32.5594C6.22021 34.4594 7.68017 35.9793 9.50012 35.9993C11.3201 36.0193 12.96 34.3994 13 32.5394C13.02 30.7195 11.3601 29.0395 9.56012 29.0595Z" fill="#45B649"/>
</svg>
