<svg width="36" height="36" viewBox="0 0 36 36" fill="none" xmlns="http://www.w3.org/2000/svg">
<path fill-rule="evenodd" clip-rule="evenodd" d="M34.0868 32.8799H35.1576C35.4667 32.8799 35.7176 33.1308 35.7176 33.4399C35.7176 33.7489 35.4667 33.9998 35.1576 33.9998H1.55996C1.25093 33.9998 1 33.7489 1 33.4399C1 33.1308 1.25093 32.8799 1.55996 32.8799H2.63075V9.36503C2.63078 9.21653 2.68979 9.07412 2.7948 8.96912C2.8998 8.86411 3.04221 8.8051 3.19071 8.80507H12.0017V32.8799H13.1216V5.47925C13.1216 5.4057 13.136 5.33287 13.1642 5.26492C13.1923 5.19696 13.2335 5.13522 13.2855 5.08321C13.3376 5.03121 13.3993 4.98996 13.4672 4.96184C13.5352 4.93371 13.608 4.91925 13.6816 4.91929H23.0443C23.1928 4.91929 23.3352 4.97828 23.4402 5.0833C23.5452 5.18831 23.6042 5.33074 23.6042 5.47925V32.8799H24.7242V8.80507H33.5269C33.6754 8.80507 33.8178 8.86406 33.9228 8.96908C34.0278 9.07409 34.0868 9.21652 34.0868 9.36503V32.8799ZM4.68454 16.6391V18.3709C4.68454 18.4637 4.72143 18.5527 4.78709 18.6183C4.81957 18.6508 4.85814 18.6766 4.9006 18.6942C4.94306 18.7118 4.98856 18.7209 5.03452 18.7209H6.76627C6.85908 18.7208 6.94809 18.684 7.01372 18.6183C7.07935 18.5527 7.11623 18.4637 7.11625 18.3709V16.6391C7.11625 16.5463 7.07937 16.4573 7.01374 16.3917C6.94811 16.326 6.85909 16.2892 6.76627 16.2892H5.03452C4.9417 16.2892 4.85268 16.326 4.78705 16.3917C4.72142 16.4573 4.68454 16.5463 4.68454 16.6391ZM8.98603 22.6395H10.7178C10.8107 22.6395 10.8997 22.6027 10.9653 22.537C11.0309 22.4714 11.0678 22.3824 11.0678 22.2896V20.5496C11.0678 20.4567 11.0309 20.3677 10.9653 20.3021C10.8997 20.2364 10.8107 20.1996 10.7178 20.1996H8.98603C8.89321 20.1996 8.80419 20.2364 8.73856 20.3021C8.67292 20.3677 8.63605 20.4567 8.63605 20.5496V22.2896C8.63605 22.3824 8.67292 22.4714 8.73856 22.537C8.80419 22.6027 8.89321 22.6395 8.98603 22.6395ZM15.5171 9.71696H21.2005C21.2933 9.71696 21.3823 9.68009 21.4479 9.61446C21.5136 9.54883 21.5504 9.45981 21.5504 9.36699V7.71741C21.5504 7.62459 21.5136 7.53558 21.4479 7.46994C21.3823 7.40431 21.2933 7.36744 21.2005 7.36744H15.5171C15.4243 7.36744 15.3353 7.40431 15.2697 7.46994C15.204 7.53558 15.1672 7.62459 15.1672 7.71741V9.36699C15.1672 9.45981 15.204 9.54883 15.2697 9.61446C15.3353 9.68009 15.4243 9.71696 15.5171 9.71696ZM15.1672 32.8799H21.5504V24.0279C21.5504 23.3214 20.9754 22.7381 20.2606 22.7381H16.457C15.7422 22.7381 15.1672 23.3214 15.1672 24.0279V32.8799ZM5.03452 13.5699H10.7178C10.8107 13.5699 10.8997 13.533 10.9653 13.4674C11.0309 13.4018 11.0678 13.3128 11.0678 13.2199V11.5703C11.0678 11.4775 11.0309 11.3885 10.9653 11.3228C10.8997 11.2572 10.8107 11.2203 10.7178 11.2203H5.03452C4.9417 11.2203 4.85268 11.2572 4.78705 11.3228C4.72142 11.3885 4.68454 11.4775 4.68454 11.5703V13.2199C4.68454 13.3128 4.72142 13.4018 4.78705 13.4674C4.85268 13.533 4.9417 13.5699 5.03452 13.5699ZM5.03452 22.6395H6.76627C6.85909 22.6395 6.94811 22.6027 7.01374 22.537C7.07937 22.4714 7.11625 22.3824 7.11625 22.2896V20.5496C7.11625 20.4567 7.07937 20.3677 7.01374 20.3021C6.94811 20.2364 6.85909 20.1996 6.76627 20.1996H5.03452C4.9417 20.1996 4.85268 20.2364 4.78705 20.3021C4.72142 20.3677 4.68454 20.4567 4.68454 20.5496V22.2896C4.68454 22.3824 4.72142 22.4714 4.78705 22.537C4.85268 22.6027 4.9417 22.6395 5.03452 22.6395ZM8.63605 16.6391V18.3709C8.63604 18.4168 8.64509 18.4624 8.66267 18.5048C8.68026 18.5473 8.70604 18.5859 8.73853 18.6184C8.77104 18.6509 8.80962 18.6767 8.85209 18.6942C8.89455 18.7118 8.94006 18.7209 8.98603 18.7209H10.7178C10.7638 18.7209 10.8093 18.7118 10.8518 18.6942C10.8943 18.6767 10.9328 18.6509 10.9653 18.6184C10.9978 18.5859 11.0236 18.5473 11.0412 18.5048C11.0588 18.4624 11.0678 18.4168 11.0678 18.3709V16.6391C11.0678 16.5463 11.0309 16.4573 10.9653 16.3917C10.8997 16.3261 10.8107 16.2892 10.7178 16.2892H8.98603C8.89322 16.2892 8.80422 16.3261 8.7386 16.3917C8.67297 16.4573 8.63609 16.5463 8.63605 16.6391ZM26.3769 22.6395H28.1169C28.2097 22.6395 28.2987 22.6027 28.3644 22.537C28.43 22.4714 28.4669 22.3824 28.4669 22.2896V20.5496C28.4669 20.4567 28.43 20.3677 28.3644 20.3021C28.2987 20.2364 28.2097 20.1996 28.1169 20.1996H26.3769C26.2841 20.1996 26.1951 20.2364 26.1295 20.3021C26.0638 20.3677 26.027 20.4567 26.027 20.5496V22.2896C26.027 22.3824 26.0638 22.4714 26.1295 22.537C26.1951 22.6027 26.2841 22.6395 26.3769 22.6395ZM26.3769 18.7209H28.1169C28.2097 18.7209 28.2987 18.684 28.3644 18.6184C28.43 18.5527 28.4669 18.4637 28.4669 18.3709V16.6391C28.4669 16.5463 28.43 16.4573 28.3644 16.3917C28.2987 16.326 28.2097 16.2892 28.1169 16.2892H26.3769C26.2841 16.2892 26.1951 16.326 26.1295 16.3917C26.0638 16.4573 26.027 16.5463 26.027 16.6391V18.3709C26.027 18.4637 26.0638 18.5527 26.1295 18.6184C26.1951 18.684 26.2841 18.7209 26.3769 18.7209ZM15.5171 15.1801H17.2489C17.3417 15.18 17.4307 15.1432 17.4963 15.0775C17.5619 15.0119 17.5988 14.9229 17.5989 14.8301V13.0984C17.5989 13.0055 17.562 12.9165 17.4964 12.8509C17.4307 12.7853 17.3417 12.7484 17.2489 12.7484H15.5171C15.4243 12.7484 15.3353 12.7853 15.2697 12.8509C15.2041 12.9166 15.1672 13.0056 15.1672 13.0984V14.8301C15.1672 14.9229 15.2041 15.0119 15.2697 15.0776C15.3353 15.1432 15.4243 15.1801 15.5171 15.1801ZM30.3285 22.6395H32.0602C32.153 22.6395 32.242 22.6027 32.3077 22.537C32.3733 22.4714 32.4102 22.3824 32.4102 22.2896V20.5496C32.4102 20.4567 32.3733 20.3677 32.3077 20.3021C32.242 20.2364 32.153 20.1996 32.0602 20.1996H30.3285C30.2356 20.1996 30.1466 20.2364 30.081 20.3021C30.0154 20.3677 29.9785 20.4567 29.9785 20.5496V22.2896C29.9785 22.3824 30.0154 22.4714 30.081 22.537C30.1466 22.6027 30.2356 22.6395 30.3285 22.6395ZM30.3285 18.7209H32.0602C32.1062 18.7209 32.1517 18.7118 32.1941 18.6942C32.2366 18.6766 32.2752 18.6508 32.3076 18.6183C32.3401 18.5858 32.3659 18.5473 32.3835 18.5048C32.4011 18.4623 32.4102 18.4168 32.4102 18.3709V16.6391C32.4102 16.5463 32.3733 16.4573 32.3077 16.3917C32.242 16.3261 32.153 16.2892 32.0602 16.2892H30.3285C30.2356 16.2892 30.1466 16.326 30.081 16.3916C30.0153 16.4573 29.9785 16.5463 29.9785 16.6391V18.3709C29.9785 18.4637 30.0154 18.5527 30.081 18.6184C30.1466 18.684 30.2356 18.7209 30.3285 18.7209ZM19.4687 19.1316H21.2005C21.2933 19.1316 21.3823 19.0947 21.4479 19.0291C21.5136 18.9634 21.5504 18.8744 21.5504 18.7816V17.0417C21.5504 16.9489 21.5136 16.8598 21.4479 16.7942C21.3823 16.7286 21.2933 16.6917 21.2005 16.6917H19.4687C19.3759 16.6917 19.2869 16.7286 19.2212 16.7942C19.1556 16.8598 19.1187 16.9489 19.1187 17.0417V18.7816C19.1187 18.8744 19.1556 18.9634 19.2212 19.0291C19.2869 19.0947 19.3759 19.1316 19.4687 19.1316ZM15.5171 19.1316H17.2489C17.3417 19.1316 17.4307 19.0947 17.4964 19.0291C17.562 18.9634 17.5989 18.8744 17.5989 18.7816V17.0417C17.5989 16.9489 17.562 16.8598 17.4964 16.7942C17.4307 16.7286 17.3417 16.6917 17.2489 16.6917H15.5171C15.4243 16.6917 15.3353 16.7286 15.2697 16.7942C15.204 16.8598 15.1672 16.9489 15.1672 17.0417V18.7816C15.1672 18.8744 15.204 18.9634 15.2697 19.0291C15.3353 19.0947 15.4243 19.1316 15.5171 19.1316ZM19.4687 15.1801H21.2005C21.2933 15.18 21.3823 15.1432 21.4479 15.0775C21.5135 15.0119 21.5504 14.9229 21.5504 14.8301V13.0984C21.5504 13.0055 21.5135 12.9165 21.4479 12.8509C21.3823 12.7853 21.2933 12.7484 21.2005 12.7484H19.4687C19.3759 12.7484 19.2869 12.7853 19.2213 12.8509C19.1557 12.9166 19.1188 13.0056 19.1187 13.0984V14.8301C19.1187 14.9229 19.1556 15.0119 19.2212 15.0776C19.2869 15.1432 19.3759 15.1801 19.4687 15.1801ZM26.073 13.6767H32.3641C32.4569 13.6767 32.5459 13.6398 32.6116 13.5742C32.6772 13.5086 32.7141 13.4196 32.7141 13.3268V11.4636C32.7141 11.3707 32.6772 11.2817 32.6116 11.2161C32.546 11.1504 32.4569 11.1136 32.3641 11.1136H26.073C25.9801 11.1136 25.8911 11.1504 25.8255 11.2161C25.7599 11.2817 25.723 11.3707 25.723 11.4636V13.3268C25.723 13.4196 25.7599 13.5086 25.8255 13.5742C25.8912 13.6398 25.9802 13.6767 26.073 13.6767ZM21.5258 3.79936H15.1918V2.55996C15.1918 2.41145 15.2508 2.26902 15.3558 2.16401C15.4608 2.059 15.6032 2 15.7518 2H20.9658C21.1143 2 21.2568 2.059 21.3618 2.16401C21.4668 2.26902 21.5258 2.41145 21.5258 2.55996V3.79936Z" fill="#45B649"/>
</svg>
