<svg width="36" height="36" viewBox="0 0 36 36" fill="none" xmlns="http://www.w3.org/2000/svg">
<g clip-path="url(#clip0_4094_11480)">
<path fill-rule="evenodd" clip-rule="evenodd" d="M13.9037 18.4492C13.8875 18.4354 13.8714 18.4227 13.8553 18.41C13.8392 18.3973 13.8231 18.3847 13.807 18.3708C12.4956 17.2829 11.4419 15.8861 10.7517 14.3279C10.729 14.2761 10.7065 14.224 10.684 14.1719C10.5426 13.8437 10.4001 13.5132 10.1857 13.2307C10.0956 13.1119 9.99298 13.0025 9.89026 12.8931C9.77781 12.7732 9.66528 12.6533 9.56909 12.5208C9.2976 12.1382 9.17336 11.6726 9.07213 11.2162C8.90188 10.4556 8.77764 9.61193 9.16416 8.93427C9.20456 8.86381 9.24983 8.79579 9.29506 8.72783L9.29506 8.72782C9.38891 8.5868 9.48259 8.44603 9.53227 8.28427C9.58834 8.10711 9.58377 7.92185 9.57919 7.73609L9.57829 7.69881C9.54148 5.77185 10.0062 3.34701 11.5707 2.01935C13.103 0.719344 15.1184 -0.0136376 17.1339 0.000192224C19.1493 0.0140221 21.1556 0.770053 22.6786 2.09772C22.9363 2.32361 23.1802 2.56332 23.3827 2.83992C23.714 3.29169 23.9164 3.82184 24.0775 4.35659C24.2577 4.9504 24.3129 5.60579 24.3683 6.26367V6.26369C24.4304 7.00012 24.4927 7.73968 24.7309 8.39952C24.7811 8.53987 24.8511 8.67262 24.9207 8.80475L24.9207 8.80478C24.9723 8.90266 25.0237 9.00019 25.0668 9.10023C25.4625 10.0084 25.2002 11.0687 24.7907 11.9722C24.5192 12.5715 24.1879 13.1432 23.852 13.7148C23.7412 13.9048 23.6307 14.0969 23.5197 14.29C22.4182 16.2057 21.2615 18.2173 19.1631 19.1637C17.8931 19.7354 16.3746 19.823 15.1092 19.2329C14.6767 19.0301 14.2764 18.7535 13.9037 18.4492ZM2.18861 24.7418C2.4923 24.0734 2.95705 23.4741 3.58285 23.0961C4.11202 22.7734 4.72861 22.6305 5.3314 22.4922C7.68275 21.9482 9.84083 21.3535 11.8563 19.9844C12.39 20.5422 12.9054 21.0401 13.683 21.2567C13.7863 21.2851 13.8907 21.3086 13.9951 21.3321L13.9951 21.3321C14.1791 21.3736 14.3627 21.4149 14.5389 21.4826C15.2691 21.77 16.1651 21.7461 16.9901 21.7242L16.9903 21.7242C17.1843 21.719 17.3744 21.714 17.5575 21.7131C18.6158 21.7085 19.6971 21.6163 20.6819 21.1922C20.9441 21.0769 21.1972 20.9432 21.4411 20.7911C21.685 20.639 21.9289 20.4592 22.0715 20.2057C22.2659 19.8622 22.9679 20.3618 23.4457 20.7018L23.4457 20.7019C23.59 20.8045 23.7138 20.8927 23.797 20.9386C24.7173 21.4411 25.702 21.8191 26.7236 22.0542C27.0542 22.1313 27.3935 22.196 27.7339 22.2609C28.9616 22.4949 30.2035 22.7316 31.1042 23.5617C32.6364 24.9723 32.7009 27.3326 32.6871 29.2688C32.6852 29.4501 32.6913 29.6364 32.6974 29.8242V29.8242C32.7218 30.5772 32.7471 31.355 32.2683 31.938C31.5367 32.8277 30.4093 33.321 29.3464 33.6944C28.8264 33.8788 24.9566 35.2387 24.8094 34.561C24.7726 34.3905 24.8646 34.2199 24.9474 34.0678C25.2952 33.4516 24.9002 32.4006 24.6416 31.7129C24.6197 31.6545 24.5987 31.5988 24.5793 31.5461C24.2756 30.7163 23.6728 30.0202 22.9642 29.4993C22.1543 28.9 21.1834 28.3975 20.1803 28.2731C19.6051 28.2039 19.0529 28.3099 18.4916 28.4436L18.4706 28.4488C18.2149 28.5117 17.9516 28.5764 17.7231 28.711C17.6909 28.7295 17.6592 28.7494 17.6275 28.7694C17.5641 28.8094 17.5007 28.8493 17.4332 28.877C17.0915 29.0156 16.7282 28.8478 16.3846 28.6892C16.3396 28.6684 16.2949 28.6478 16.2507 28.628C14.3733 27.7936 12.4959 28.4068 11.0004 29.61C10.2688 30.1954 9.7396 31.0529 9.4359 31.9334C9.21185 32.5839 9.25133 33.2298 9.29247 33.9029L9.29326 33.9156C9.35239 34.8678 9.13233 34.8255 8.35895 34.6766C8.28988 34.6633 8.21639 34.6492 8.13829 34.6348C6.54619 34.3398 4.99089 33.8373 3.52763 33.1366C2.75459 32.7678 1.77448 32.2054 1.526 31.311C1.02904 29.5224 1.40636 26.6919 2.07357 24.9908C2.09427 24.9493 2.11267 24.9078 2.13107 24.8664L2.13109 24.8663C2.1495 24.8248 2.1679 24.7833 2.18861 24.7418ZM16.4486 30.4995C15.6203 29.9647 14.5114 29.8541 13.5175 30.1122C12.6018 30.3473 11.7827 30.8959 11.3686 31.7119C10.9315 32.5601 10.8026 33.1824 10.8854 34.1551C10.9637 35.0725 11.4514 35.6672 12.0542 36.3264C12.5643 36.8864 13.0968 37.4205 13.629 37.9542C14.1482 38.475 14.6672 38.9955 15.1648 39.5396C15.226 39.6066 15.2914 39.6809 15.3606 39.7596C15.8531 40.3195 16.5374 41.0974 17.2677 40.9963C17.8369 40.9211 18.2126 40.4444 18.5522 40.0134C18.6079 39.9427 18.6626 39.8732 18.7171 39.8069C19.4406 38.9314 20.2617 38.134 21.0784 37.341C21.3109 37.1152 21.543 36.8898 21.7725 36.6629C21.7894 36.6496 21.8083 36.6359 21.8281 36.6216C21.8835 36.5815 21.9459 36.5363 21.9934 36.4785C22.0458 36.4161 22.0987 36.3541 22.1516 36.2921C22.47 35.9189 22.788 35.5462 23.0011 35.0956C23.3876 34.2796 23.521 32.9151 23.0747 32.0991C22.5041 31.0665 21.9611 30.5917 20.889 30.1353C20.869 30.1269 20.8485 30.118 20.8275 30.1089C20.7905 30.0928 20.7523 30.0762 20.7141 30.0615C19.9319 29.7296 18.9564 29.8909 18.2064 30.2505C17.9979 30.3505 17.8361 30.4485 17.6986 30.5318C17.2715 30.7905 17.0786 30.9074 16.4486 30.4995Z" fill="#45B649"/>
</g>
<defs>
<clipPath id="clip0_4094_11480">
<rect width="36" height="36" fill="white"/>
</clipPath>
</defs>
</svg>
