<svg width="36" height="37" viewBox="0 0 36 37" fill="none" xmlns="http://www.w3.org/2000/svg">
<path fill-rule="evenodd" clip-rule="evenodd" d="M13.4603 3.71541H8.59591C7.68129 3.71541 7.39493 3.41325 7.38753 2.44507C7.38684 2.35792 7.38594 2.27078 7.38504 2.18363V2.18362C7.3811 1.80018 7.37715 1.41673 7.39123 1.03329C7.41838 0.329972 7.72202 0.00595766 8.38237 0.00467189C11.7483 -0.00175696 15.1142 -0.00175696 18.4802 0.00595766C19.1504 0.00724343 19.438 0.3274 19.4491 1.03457C19.4578 1.56946 19.4553 2.10434 19.4454 2.63793C19.4318 3.40554 19.1368 3.70898 18.3851 3.71284C17.2126 3.71835 16.04 3.7173 14.8674 3.71625C14.3984 3.71583 13.9293 3.71541 13.4603 3.71541ZM5.08199 12.2645H22.0487C21.9749 12.1134 21.9149 11.9679 21.8587 11.8316C21.7495 11.5667 21.6547 11.3367 21.5007 11.1677C20.6354 10.2253 19.7368 9.31621 18.8272 8.42003C18.3334 7.93272 18.0742 7.3837 18.1014 6.66495C18.1211 6.13715 18.1164 5.60812 18.1117 5.07313V5.07308V5.07299V5.07289V5.0728V5.0727V5.07261V5.07251V5.07242V5.07233C18.1097 4.83603 18.1076 4.59858 18.1076 4.35956H8.73428C8.73428 4.6236 8.7323 4.8829 8.73034 5.13891C8.72593 5.7157 8.72165 6.27583 8.74046 6.83596C8.7602 7.44027 8.54914 7.89929 8.13688 8.30945C7.60299 8.84063 7.07675 9.38063 6.55057 9.92056C6.15588 10.3256 5.76123 10.7305 5.36341 11.1317C5.04002 11.457 4.89684 11.8067 5.08199 12.2645ZM21.8979 12.8944H5.05463V26.3975H20.3155C20.3112 26.3533 20.3086 26.312 20.3062 26.273C20.301 26.1907 20.2965 26.1188 20.2773 26.0517C19.7329 24.1166 19.8638 22.2047 21.0685 20.6399C21.8806 19.5842 21.9337 18.5209 21.8991 17.3354C21.8924 17.1023 21.8943 16.8691 21.8962 16.6359C21.897 16.5271 21.8979 16.4182 21.8979 16.3094V12.8944ZM15.7909 21.1876C15.5161 21.1882 15.2361 21.1889 14.9488 21.1889C14.9488 21.4805 14.9471 21.7645 14.9454 22.0432C14.9415 22.6763 14.9378 23.2816 14.955 23.8852C14.971 24.4496 14.8081 24.7132 14.2144 24.6566C13.6441 24.6026 13.0652 24.6245 12.4913 24.6515C12.0556 24.6708 11.9087 24.4779 11.9161 24.0459C11.9274 23.4018 11.9253 22.7577 11.923 22.073L11.923 22.0728C11.922 21.783 11.9211 21.486 11.9211 21.1786C11.6501 21.1786 11.3837 21.1758 11.1205 21.1731H11.1204H11.1202H11.1201H11.1199H11.1198H11.1197H11.1195H11.1194C10.5042 21.1667 9.90674 21.1605 9.3105 21.1902C8.7526 21.2172 8.58103 20.9742 8.60448 20.4419C8.62793 19.9301 8.63534 19.4145 8.61189 18.9028C8.58473 18.292 8.76741 18.0169 9.41912 18.0709C9.98047 18.1164 10.5466 18.1062 11.1322 18.0957C11.3913 18.091 11.6542 18.0863 11.9223 18.0863C11.9223 17.8087 11.9249 17.537 11.9275 17.2694L11.9275 17.2693V17.2693C11.9334 16.6547 11.9391 16.0623 11.9124 15.4711C11.884 14.8539 12.0395 14.5556 12.6962 14.6225C13.2455 14.679 13.8046 14.6559 14.3576 14.6276C14.7933 14.6045 14.9389 14.7909 14.9303 15.2268C14.9181 15.8843 14.9206 16.5425 14.9232 17.2182V17.2183V17.2184V17.2185V17.2185V17.2186V17.2187V17.2188V17.2188C14.9243 17.5049 14.9253 17.794 14.9253 18.0876C15.2105 18.0876 15.4891 18.0891 15.7631 18.0906L15.764 18.0906H15.764H15.764H15.7641H15.7641H15.7642H15.7642H15.7642H15.7643C16.403 18.0941 17.0167 18.0974 17.6297 18.0812C18.0469 18.0696 18.2283 18.2059 18.2135 18.6623C18.1913 19.3451 18.2036 20.0304 18.2222 20.7144C18.232 21.0873 18.0666 21.1966 17.7383 21.1927C17.0994 21.1845 16.4606 21.186 15.7909 21.1876ZM17.6214 27.0317C15.5663 27.8996 14.4061 29.2831 14.9442 31.7865H14.1506C13.6579 31.7865 13.1654 31.7869 12.6729 31.7873H12.6727H12.6726H12.6725H12.6723H12.6722H12.6721H12.672C11.4409 31.7884 10.2102 31.7894 8.97885 31.7839C6.28313 31.7723 4.69706 29.8681 5.05377 27.033C9.24052 27.0317 13.431 27.0317 17.6214 27.0317ZM30.2899 20.361C28.1336 17.9206 24.9158 17.6918 22.4546 19.8249C23.772 21.1986 25.0838 22.5667 26.393 23.932C27.6767 25.2709 28.9578 26.607 30.2393 27.9432C32.0833 26.0043 32.1093 22.4221 30.2899 20.361ZM28.1958 31.7721C25.8371 34.3732 18.5658 34.7217 15.4961 31.776C15.285 33.9476 15.7195 34.7513 17.5018 35.551C19.0373 36.2402 20.6567 36.4665 22.3057 36.3958C24.0153 36.3225 25.6902 36.0345 27.1627 35.0264C28.2983 34.2485 28.6365 33.1505 28.1958 31.7721ZM28.7635 29.2456C27.5588 27.4224 25.8024 26.8849 23.9547 26.5828C23.4569 26.5013 22.9501 26.484 22.4428 26.4666C22.1097 26.4553 21.7765 26.4439 21.4453 26.4143C21.2639 26.3976 20.9899 26.2742 20.9343 26.1276C20.2727 24.3674 20.4752 21.9206 21.981 20.4111C23.2958 21.7787 24.6102 23.1463 25.93 24.5195L25.9312 24.5207C27.1994 25.8403 28.4726 27.165 29.7559 28.4998C29.6086 28.6107 29.4535 28.7272 29.294 28.8469L29.2912 28.849C29.1187 28.9785 28.9413 29.1117 28.7635 29.2456ZM18.5358 32.2845L18.0383 32.5654C18.0988 32.6004 18.1429 32.6281 18.1776 32.6498C18.2306 32.683 18.2615 32.7023 18.2951 32.7132C20.191 33.2995 22.114 33.4088 24.0605 33.0514C25.2368 32.8354 26.3711 32.4946 27.3437 31.736C27.9572 31.2577 28.4768 30.6676 28.2645 29.7997C28.0263 28.825 27.2326 28.3647 26.4242 27.97C26.3365 27.9263 26.1786 27.9777 26.0786 28.0343C23.5818 29.4361 21.0884 30.8437 18.5358 32.2845ZM25.5482 27.641C25.0888 27.8998 24.632 28.1574 24.1771 28.4139L24.177 28.414C21.9698 29.6585 19.8096 30.8766 17.64 32.0769C17.4511 32.1811 17.1327 32.1644 16.9266 32.0756C16.6316 31.9484 16.3625 31.7272 16.1206 31.5009C15.2467 30.6845 15.2195 29.6841 16.0564 28.8342C16.9722 27.902 18.1498 27.5215 19.3594 27.2694C21.338 26.8567 23.3104 26.9313 25.2606 27.4893C25.3082 27.5031 25.3529 27.5293 25.4159 27.5662C25.4524 27.5877 25.4951 27.6127 25.5482 27.641ZM17.608 20.5781V18.7176C17.3605 18.7176 17.1121 18.716 16.863 18.7144C16.2462 18.7104 15.6252 18.7064 15.0036 18.7266C14.5358 18.742 14.3322 18.598 14.3507 18.076C14.3724 17.4348 14.3678 16.7923 14.3632 16.1418C14.3613 15.8675 14.3593 15.5918 14.3593 15.3142H12.535C12.535 15.5617 12.5348 15.8052 12.5346 16.0459C12.5341 16.6379 12.5336 17.2126 12.5362 17.7867C12.5412 18.6559 12.461 18.733 11.6315 18.7227C11.0798 18.7155 10.5287 18.7171 9.9706 18.7188C9.72961 18.7195 9.48732 18.7202 9.24313 18.7202V20.5652C9.49306 20.5652 9.74143 20.5656 9.9887 20.5659C10.562 20.5668 11.1295 20.5676 11.6969 20.564C12.4153 20.5588 12.5202 20.6578 12.5214 21.3869C12.5223 21.9652 12.522 22.5435 12.5217 23.1195C12.5216 23.4067 12.5214 23.6932 12.5214 23.979H14.3791C14.3791 23.6986 14.3842 23.4222 14.3894 23.1489C14.401 22.5272 14.4124 21.9215 14.3618 21.3213C14.3025 20.618 14.6173 20.5524 15.1468 20.5704C15.7158 20.5902 16.2855 20.586 16.8643 20.5818C17.1103 20.5799 17.358 20.5781 17.608 20.5781Z" fill="#45B649"/>
</svg>
