<svg width="46" height="37" viewBox="0 0 46 37" fill="none" xmlns="http://www.w3.org/2000/svg">
<path fill-rule="evenodd" clip-rule="evenodd" d="M12.0298 32.565C11.9217 32.3848 11.8225 32.1955 11.7234 32.0063C10.6122 29.7373 10.6653 27.1686 10.7184 24.6013V24.6012C10.7373 23.6914 10.7561 22.7817 10.7231 21.8857C10.7141 21.5342 10.687 21.1557 10.5068 20.8493C10.2509 20.4081 9.75325 20.1829 9.28431 19.9707L9.25409 19.9571C6.78477 18.8306 4.63087 17.0191 3.03572 14.8292C1.33243 12.495 0.223934 9.60213 0.521335 6.72726C0.818735 3.85239 2.72029 1.05863 5.48702 0.2205C6.28009 -0.0138156 7.28945 -0.0228277 7.74906 0.662094C7.96536 0.986531 8.01042 1.38306 8.02844 1.77059C8.11856 3.22154 8.06449 4.6815 7.86622 6.11443L7.86494 6.12258C7.83831 6.29137 7.81043 6.46805 7.704 6.60109C7.56882 6.77232 7.33451 6.84442 7.11821 6.88948C6.09984 7.07873 5.03641 6.93454 4.10816 6.48393C3.77471 8.40351 4.28841 10.4132 5.27974 12.0895C6.27107 13.7657 7.72203 15.1356 9.31717 16.2621C10.3806 17.0191 11.6333 17.695 12.913 17.4968C14.0846 17.3165 15.0219 16.4423 15.842 15.5862C18.2031 13.0898 20.3751 9.9536 20.0867 6.52899C19.3387 6.91651 18.4825 7.32206 17.6894 7.03367C16.4728 6.59208 16.3286 4.95187 16.3917 3.66313L16.4998 1.66244L16.5002 1.65628C16.5181 1.31566 16.5369 0.957711 16.7071 0.662094C17.1848 -0.221095 18.5096 -0.103937 19.4198 0.337658C21.8711 1.5543 23.3941 4.25793 23.6014 6.98861C23.8087 9.71929 22.8083 12.45 21.2582 14.712C19.7082 16.9741 17.6354 18.8215 15.4815 20.5158L15.4466 20.5437C15.1873 20.7509 14.924 20.9612 14.7515 21.2458C14.5089 21.6592 14.4992 22.1711 14.4902 22.6476L14.4901 22.6517C14.4856 23.2431 14.4834 23.8345 14.4811 24.4271V24.4275C14.4789 25.0176 14.4766 25.6089 14.4721 26.2025C14.4631 28.1311 14.5352 30.2669 15.869 31.6638C16.7792 32.6101 18.1671 33.0156 19.4738 32.8624C20.7806 32.7092 21.9882 32.0333 22.9255 31.1141C19.7172 27.5273 18.7258 22.111 20.4472 17.6229C22.1685 13.1349 26.5394 9.77336 31.3248 9.25967C31.3428 9.10646 31.3608 8.96227 31.3879 8.80906C31.2617 8.80005 31.1333 8.79329 31.0049 8.78653C30.8764 8.77977 30.748 8.77301 30.6219 8.764V6.60109H34.9927V8.77301C34.6863 8.79104 34.3799 8.80906 34.0645 8.81807C34.0601 8.91397 34.0537 9.00987 34.0471 9.10679L34.0471 9.10699C34.0401 9.21038 34.0331 9.31494 34.0284 9.42189C38.8499 9.92657 43.2298 13.3782 44.87 17.9384C45.7803 20.4708 45.8073 23.2825 45.0863 25.86C44.3654 28.4195 42.8603 30.7987 40.7785 32.4749C38.7328 34.1241 36.1463 35.0884 33.5328 35.2597C31.6312 35.3858 29.7026 35.0975 27.9452 34.3585C27.8762 34.3297 27.8068 34.3002 27.737 34.2706L27.7359 34.2702C27.0413 33.9755 26.3143 33.6672 25.6021 33.8718C25.2057 33.9861 24.8802 34.2488 24.5602 34.5071L24.5598 34.5074C24.5016 34.5543 24.4437 34.6011 24.3855 34.6468C22.4478 36.1699 19.8343 36.8188 17.4191 36.3321C15.1841 35.8905 13.1834 34.4846 12.0298 32.565ZM32.5868 32.439C38.1514 32.439 42.6624 27.928 42.6624 22.3634C42.6624 16.7988 38.1514 12.2878 32.5868 12.2878C27.0222 12.2878 22.5112 16.7988 22.5112 22.3634C22.5112 27.928 27.0222 32.439 32.5868 32.439ZM32.7665 24.7514L36.4074 19.6325C36.7679 19.1189 36.137 18.497 35.6323 18.8575L30.5135 22.4984C30.2341 22.6967 30.198 23.1022 30.4414 23.3455L31.9193 24.8235C32.1627 25.0669 32.5682 25.0308 32.7665 24.7514Z" fill="#45B649"/>
</svg>
