<svg width="36" height="36" viewBox="0 0 36 36" fill="none" xmlns="http://www.w3.org/2000/svg">
<path d="M4.33268 20.4159C3.78032 21.1684 2.93953 22.3056 3.00344 22.5775C3.29162 23.146 5.00509 23.8266 6.00198 24.1228C6.12931 24.1586 6.21756 24.2747 6.21812 24.4071C6.21812 24.6755 6.30608 30.6684 6.31418 31.681C6.93858 32.0454 10.8218 33.1861 13.7403 32.7697L13.9084 32.7418H13.9805C15.1293 32.5377 15.9301 32.0973 16.3586 31.4288V31.4285C16.4482 31.288 16.6345 31.247 16.7749 31.3364C16.9154 31.426 16.9564 31.6125 16.8671 31.7527C16.3267 32.5935 15.3778 33.0699 14.2569 33.2981L13.8967 35.4399H28.6767L28.6248 32.7496H28.6245C28.6033 30.8329 28.9512 28.93 29.6493 27.1451C30.2978 25.4797 31.2866 23.0737 32.3114 21.0882C34.1008 17.6054 34.313 12.4733 32.8517 8.31769C32.0512 5.98762 30.2816 2.8732 26.6147 1.25186C22.4436 -0.597875 17.1755 -0.385628 12.8677 1.80812C9.15257 3.70168 6.66674 6.78015 5.87001 10.4796C5.87001 10.5075 5.22551 14.1184 6.27046 15.5918C7.07498 16.7045 5.61757 18.6783 4.33279 20.4157L4.33268 20.4159ZM9.60095 9.10225C9.4267 8.40888 9.57358 7.67393 10.0011 7.1006C10.4507 6.61639 11.0676 6.32153 11.7266 6.27599C11.8492 5.36009 12.3019 4.52012 12.9997 3.91412C13.7724 3.29754 14.8011 3.08143 16.0662 3.26961C16.6506 2.7491 19.365 0.603347 22.0912 2.58909C22.6478 2.47292 24.6812 2.13671 26.0305 3.07358V3.0733C26.6784 3.52038 27.1084 4.21903 27.2154 4.99903C27.7917 5.15513 29.3972 5.69967 30.2218 7.04872H30.2221C30.7364 7.92137 30.8629 8.96937 30.5703 9.93896C30.8143 10.4114 31.6753 12.269 31.0626 13.9623C30.8314 14.5987 30.4125 15.15 29.8615 15.5437C30.8744 17.1195 31.2136 19.0352 30.8034 20.8628C30.3932 22.6908 29.2679 24.2778 27.6787 25.2697C26.0897 26.2613 24.1696 26.5749 22.3475 26.1404C22.2655 26.1275 22.1926 26.0812 22.1459 26.0125C22.0993 25.9435 22.0834 25.8586 22.1015 25.7776C22.12 25.6966 22.1711 25.6268 22.2426 25.585C22.314 25.5431 22.4001 25.5325 22.4796 25.5559C22.9549 25.6648 23.4411 25.7198 23.9287 25.7201C25.9815 25.7209 27.9105 24.738 29.116 23.0767C30.3215 21.4152 30.6577 19.2764 30.0201 17.3253C29.3826 15.3739 27.8484 13.8465 25.8942 13.2176C23.9403 12.5887 21.8032 12.9344 20.147 14.1472C18.4908 15.3603 17.5165 17.2932 17.5266 19.346C17.5363 21.3988 18.5296 23.3225 20.1975 24.519C20.324 24.6123 20.3556 24.788 20.2696 24.9195C20.1752 25.044 20.0012 25.0753 19.8694 24.9915C18.629 24.1069 17.7122 22.8408 17.259 21.3864C16.8058 19.9321 16.8409 18.3694 17.3592 16.9369C16.5064 16.8327 15.7058 16.3485 14.9571 15.2276C12.1309 16.5329 10.3894 14.2508 10.0731 13.7864V13.7862C9.34427 13.4932 8.79861 12.8703 8.60395 12.109C8.34788 10.8197 9.30067 9.49885 9.60084 9.10231L9.60095 9.10225ZM19.0087 19.8268H20.3217L21.4667 17.0807C21.5172 16.9653 21.6328 16.8925 21.7587 16.8964C21.8855 16.9017 21.995 16.9869 22.031 17.1086L23.4722 21.8486L25.2418 15.6275C25.2781 15.5021 25.3915 15.4147 25.5219 15.4114C25.654 15.4066 25.7732 15.4899 25.8143 15.6155L27.2675 19.8269H28.4685H28.4682C28.6341 19.8269 28.7687 19.9615 28.7687 20.1273C28.7687 20.2929 28.6341 20.4275 28.4682 20.4275H27.0712C26.9435 20.4281 26.8296 20.3477 26.7869 20.2273L25.5858 16.7124L23.7885 22.9935C23.7492 23.1208 23.6333 23.2094 23.5001 23.2138C23.3688 23.2138 23.2532 23.1275 23.2161 23.0016L21.7148 18.0815L20.8101 20.2432C20.7632 20.3546 20.6546 20.4272 20.5336 20.4275H19.0246C18.8587 20.4275 18.7244 20.2929 18.7244 20.1273C18.7244 19.9614 18.8587 19.8268 19.0246 19.8268L19.0087 19.8268Z" fill="#45B649"/>
<path d="M10.0606 13.1175C10.1832 12.6378 10.4658 12.2141 10.8615 11.9165C11.1212 11.7444 11.4317 11.6654 11.7422 11.6925C11.6825 11.0508 11.8017 10.4049 12.0863 9.82682C12.1214 9.75589 12.1837 9.70199 12.2588 9.67714C12.3342 9.65229 12.4163 9.65871 12.4867 9.69473C12.6327 9.76957 12.6917 9.94801 12.6188 10.0952C12.6188 10.0952 12.0784 11.1881 12.4306 11.9287V11.9284C12.6375 12.2992 13.0097 12.5481 13.4314 12.5972C13.5791 12.6318 13.6777 12.7709 13.6612 12.9217C13.645 13.0722 13.5191 13.1873 13.3674 13.1895C13.3462 13.1934 13.3244 13.1934 13.3035 13.1895C12.764 13.1057 12.2857 12.7974 11.9863 12.3409H11.9422C11.6945 12.2585 11.423 12.2909 11.2016 12.4288C10.8771 12.707 10.6627 13.0918 10.597 13.514C10.9134 13.9745 12.4306 15.9161 14.9245 14.595L14.9248 14.5947C15.0658 14.5201 15.2406 14.5673 15.325 14.7028C16.0376 15.8678 16.7701 16.3322 17.5908 16.3842C18.0792 15.3266 18.8236 14.4077 19.7566 13.7101C19.572 13.361 19.2802 13.0804 18.9239 12.9095C18.767 12.8542 18.6846 12.6822 18.7399 12.5253C18.7952 12.368 18.9672 12.2857 19.1242 12.341C19.6014 12.5576 19.996 12.9229 20.2492 13.3817C21.3526 12.6928 22.6271 12.3264 23.9281 12.3251C24.2469 12.3287 24.5653 12.3527 24.8808 12.3971C25.0959 11.8118 25.4667 11.2969 25.9537 10.9079C26.0827 10.8225 26.2556 10.849 26.3528 10.9691C26.4502 11.0894 26.4404 11.2637 26.3301 11.3723C25.9632 11.675 25.6795 12.0662 25.5055 12.5091C27.0881 12.878 28.4932 13.785 29.4806 15.0753C29.936 14.7531 30.2834 14.301 30.4775 13.7782C30.9818 12.3851 30.2893 10.7838 30.0491 10.2954V10.2951C29.549 10.3057 29.0508 10.3593 28.5599 10.4554H28.4999C28.3421 10.4596 28.208 10.3406 28.1932 10.1834C28.1784 10.0259 28.2879 9.88435 28.4437 9.85893C28.9545 9.75841 29.4728 9.70088 29.993 9.68664C30.2033 8.90756 30.0955 8.07652 29.6928 7.37673C28.8361 5.97543 26.8906 5.5513 26.8623 5.54708L26.8626 5.54736C26.7353 5.52167 26.6395 5.41612 26.6264 5.2871C26.5892 4.60881 26.2499 3.98274 25.7015 3.58177C24.3885 2.66501 22.1346 3.20953 22.0986 3.21344C22.0986 3.21344 20.8697 3.44969 20.3131 4.33437C20.0609 4.75938 19.9727 5.26206 20.0648 5.74768C21.0059 5.7742 21.9073 6.13136 22.611 6.75629C22.6817 6.80321 22.7291 6.87749 22.742 6.96126C22.7548 7.04476 22.7319 7.12993 22.6786 7.19583C22.6253 7.26145 22.5465 7.30166 22.4622 7.30641C22.3776 7.31116 22.2949 7.28016 22.2346 7.22068C19.8007 5.25113 17.9389 7.22068 17.863 7.29273C17.8063 7.35416 17.7264 7.38879 17.6429 7.38879C17.5675 7.39047 17.4947 7.3631 17.4388 7.31284C17.3799 7.25922 17.3444 7.18438 17.3408 7.10479C17.3369 7.02521 17.3651 6.9473 17.4187 6.88838C17.9797 6.33463 18.691 5.9574 19.4645 5.80349C19.36 5.18439 19.4807 4.54824 19.8046 4.01015C20.1807 3.45724 20.7213 3.03699 21.3499 2.80909C18.8398 1.40779 16.4938 3.70183 16.4059 3.80184C16.3372 3.87193 16.2375 3.90208 16.1417 3.88198C14.9929 3.68986 14.0719 3.85406 13.4115 4.38239C12.8793 4.84371 12.5193 5.47172 12.3906 6.164C12.7667 6.08833 13.1569 6.12603 13.5115 6.27207C13.8123 6.4103 14.0426 6.66665 14.1479 6.98053C14.18 7.05788 14.1784 7.14501 14.1435 7.22096C14.1085 7.29692 14.0435 7.355 13.9639 7.38097C13.9321 7.39326 13.898 7.39996 13.8639 7.4008C13.7366 7.40024 13.6232 7.32037 13.5797 7.20085C13.3113 6.44831 12.1745 6.84062 12.1265 6.86045H12.0823C12.0636 6.86269 12.0449 6.86269 12.0262 6.86045C11.4543 6.85961 10.905 7.08413 10.497 7.48513C10.1681 7.96432 10.0781 8.56802 10.253 9.12234C10.2739 9.21617 10.2485 9.31446 10.1848 9.38651C10.1848 9.38651 8.98375 10.7797 9.21194 11.9885V11.9888C9.32559 12.4666 9.63304 12.8757 10.0606 13.1175L10.0606 13.1175Z" fill="#45B649"/>
</svg>
